<!-- icon666.com - MILLIONS vector ICONS FREE --><svg enable-background="new 0 0 32 32" viewBox="0 0 32 32" xmlns="http://www.w3.org/2000/svg"><g id="Layer_1"><path d="m30.1561 26.6209-2.4076-2.4076c-.5025-.5025-.6081-1.2803-.2474-1.8925 1.6467-2.795 2.39-6.1811 1.7959-9.7658-1.0326-6.2301-6.1723-11.1552-12.4387-11.9386-9.447-1.181-17.4229 6.7949-16.2419 16.2419.7834 6.2664 5.7085 11.4061 11.9386 12.4387 3.5847.5941 6.9708-.1492 9.7658-1.7959.6123-.3607 1.39-.2551 1.8925.2474l2.5191 2.5191c.4878.4883 1.128.7324 1.7676.7324.7004 0 1.4014-.2927 1.9024-.8782.8663-1.0126.696-2.5586-.2463-3.5009zm-24.5227-10.0094c-1.0733-6.4916 4.4865-12.0513 10.978-10.978 3.9329.6502 7.1048 3.8222 7.7551 7.7551 1.0733 6.4916-4.4865 12.0513-10.978 10.978-3.9328-.6503-7.1048-3.8223-7.7551-7.7551z" fill="rgb(0,0,0)" style="fill: rgb(255, 255, 255);"></path></g></svg>